<svg version="1" xmlns="http://www.w3.org/2000/svg" width="666.667" height="666.667" viewBox="0 0 500.000000 500.000000"><path d="M230.5.6c-37.7 3.9-63.8 11.3-94.6 27C69 61.6 19.8 126.3 5.1 199.5 1.3 218.3.5 227.2.5 250c0 43.4 7.8 76.2 27.1 114.1 34 66.9 98.7 116.1 171.9 130.8 18.8 3.8 27.7 4.6 50.5 4.6s31.7-.8 50.5-4.6c73.2-14.7 137.9-63.9 171.9-130.7 19.3-38 27.1-70.8 27.1-114.2 0-22.8-.8-31.7-4.6-50.5C480.2 126.3 431 61.6 364.1 27.6 337.9 14.3 315.2 7 285.5 2.4 275.9 1 239-.3 230.5.6zm88.3 126.6c4.3 4.7 5.5 12.5 2.6 18-.9 1.7-4.5 6.8-8 11.4-13.5 17.8-33.6 49.8-49 78.1-14.9 27.4-40.7 80.8-55.5 114.8-8.2 18.9-11.5 23.5-16.5 23.5-4.1 0-6.1-1.7-8-6.5-4-10.5 1.1-23.9 35.1-93 22-44.6 41.1-78.2 67.2-117.8 14.3-21.9 18.6-27.7 21.6-29.4 3.5-2 8.1-1.6 10.5.9zm-132.3 48.1c2.1 3.3 3.9 12.9 3.1 17.1-1.1 5.9-4.9 9-19.9 16.9-14.4 7.5-45.1 25.5-60.4 35.4l-8.5 5.4 8.4 6.6c15.3 12 34.9 26.5 47.1 34.7 13.5 9.2 14.2 10.1 13.3 19.9-.9 9.8-4.3 13.8-10.3 12.2-4-1-10.8-5.7-39.3-27.1-34.9-26.2-44.5-34-45.9-37-1.7-3.7-1.4-16 .5-19.9 2.1-4.4 3.6-5.6 32.4-23.5 51.2-32 70.6-43 75.7-43 1.3 0 2.9 1 3.8 2.3zm155.9-.2c8.3 4.4 68.1 49.5 76.8 57.9l5.8 5.6v7.7c0 4.4-.6 9.2-1.4 11.1-1.8 4.3-6.8 7.8-42.3 29.9-42.6 26.5-60.9 36.7-66 36.7-2.8 0-4.9-3.1-6.3-9.5-1.5-6.5-.5-12.8 2.5-16.3 1.3-1.6 7.8-5.7 14.5-9.1 17.3-8.9 61.5-35 68.5-40.5 2-1.6 1.9-1.7-1.5-4.7-5.9-5.2-40.9-31.2-52.1-38.7-8.2-5.5-10.9-7.8-11.8-10.3-2.2-6.3-.7-16.3 3-20 2.5-2.5 5.5-2.4 10.3.2z"/></svg>