<svg id="Слой_1" data-name="Слой 1" xmlns="http://www.w3.org/2000/svg" viewBox="0 0 600 600"><defs><style>.cls-1{fill:#e84c3d;}.cls-2{font-size:85px;font-family:Arial-Black, Arial;}.cls-2,.cls-3{fill:#fff;}</style></defs><title>css</title><circle class="cls-1" cx="300" cy="300" r="300"/><text class="cls-2" transform="translate(199.5 167.5)">CSS</text><g id="Layer_1"><path class="cls-3" d="M416.3,481.39l25.37-284.13.33-3.72H156.12l.33,3.72,25.33,284.17.22,2.37,2.28.64L298,516h1.82l114-31.61,2.28-.63.21-2.37Zm-117-225h83.08l-2.5,29.08-82,36.43,1.38,6.56h76.92l-8.85,101.45L299,448.87,230.69,430l-4.34-48.58h28.14L256.74,406l.22,2.39,2.31.61,39.15,10.4h1.78l38.7-10.76,2.3-.64.2-2.37,3.87-45.5.32-3.71H224l-2.56-29.21,79.15-33.87,5.62-2.41-1.34-6.58h-87L215.4,256.4h83.89Z"/></g></svg>