<svg id="Слой_1" data-name="Слой 1" xmlns="http://www.w3.org/2000/svg" viewBox="0 0 600 600"><defs><style>.cls-1{fill:#e84c3d;}.cls-2{fill:#fff;}</style></defs><title>css</title><circle class="cls-1" cx="300" cy="300" r="300"/><polygon class="cls-2" points="417.31 498.75 300 530.84 182.69 498.75 155.62 200.84 444.38 200.84 417.31 498.75"/><polygon class="cls-1" points="386.23 262.71 213.44 262.71 217.49 303.96 299.99 303.96 220.07 334.79 223.87 376.15 336.1 376.15 332.56 417.4 299.99 427.61 267.62 417.23 264.24 396.77 225.77 396.77 230.5 448.2 299.99 468.86 369.37 448.19 379.59 334.79 300.26 334.79 382.49 303.96 386.23 262.71"/><path class="cls-2" d="M247.93,159.38a36.29,36.29,0,0,1-12-1.91,24.82,24.82,0,0,1-15.55-15.16,39.79,39.79,0,0,1-.1-25.63,26.76,26.76,0,0,1,6-9.64,25.53,25.53,0,0,1,9.39-6A34.44,34.44,0,0,1,248,99a48.94,48.94,0,0,1,6.62.41,45.76,45.76,0,0,1,5.45,1.07,40.28,40.28,0,0,1,4.75,1.66c1.41.62,2.66,1.18,3.73,1.7V117.9H266.8c-.73-.63-1.65-1.36-2.76-2.22a36.26,36.26,0,0,0-3.77-2.53,26.83,26.83,0,0,0-4.64-2.09,16.5,16.5,0,0,0-5.36-.86,18.17,18.17,0,0,0-6,1,14.88,14.88,0,0,0-5.28,3.3,16.2,16.2,0,0,0-3.73,5.89,24.53,24.53,0,0,0-1.42,8.88,23.53,23.53,0,0,0,1.54,9.12,15.86,15.86,0,0,0,3.89,5.77,14.23,14.23,0,0,0,5.31,3.06,19,19,0,0,0,5.78.92,18.26,18.26,0,0,0,5.41-.82,21,21,0,0,0,4.94-2.21,33.56,33.56,0,0,0,3.56-2.41c1.09-.86,2-1.59,2.69-2.22h1.57v13.91l-4.18,1.84a36.15,36.15,0,0,1-4.18,1.48A50.77,50.77,0,0,1,254.8,159,42.19,42.19,0,0,1,247.93,159.38Z"/><path class="cls-2" d="M326.09,140q0,8.59-7.28,14T299,159.3A55,55,0,0,1,286.43,158a64,64,0,0,1-10.06-3.22V140.86H278a34.7,34.7,0,0,0,10.41,5.71,33.77,33.77,0,0,0,11.07,2c.91,0,2.11-.08,3.6-.23a14.3,14.3,0,0,0,3.63-.79,9,9,0,0,0,2.83-1.75,4.14,4.14,0,0,0,1.11-3.13,4.23,4.23,0,0,0-1.62-3.3,11.37,11.37,0,0,0-4.74-2.13q-3.29-.78-6.94-1.46a54.35,54.35,0,0,1-6.85-1.74q-7.35-2.39-10.57-6.47a15.83,15.83,0,0,1-3.22-10.13q0-8.13,7.28-13.26T302.73,99a58.31,58.31,0,0,1,11.35,1.11,53.75,53.75,0,0,1,9.71,2.79v13.4h-1.6a31.07,31.07,0,0,0-8.62-4.7,29.44,29.44,0,0,0-10.41-1.9,27.4,27.4,0,0,0-3.73.26,14.59,14.59,0,0,0-3.57,1,6.86,6.86,0,0,0-2.62,1.78,3.89,3.89,0,0,0-1.09,2.71,4,4,0,0,0,1.76,3.54q1.75,1.23,6.64,2.25l6.15,1.28c2,.42,4.08,1,6.35,1.72q6.68,2.19,9.86,6A14.67,14.67,0,0,1,326.09,140Z"/><path class="cls-2" d="M382.93,140q0,8.59-7.29,14t-19.78,5.37a55,55,0,0,1-12.6-1.27,64.73,64.73,0,0,1-10.06-3.22V140.86h1.64a34.7,34.7,0,0,0,10.41,5.71,33.83,33.83,0,0,0,11.08,2c.91,0,2.11-.08,3.59-.23a14.1,14.1,0,0,0,3.63-.79,9,9,0,0,0,2.84-1.75,4.14,4.14,0,0,0,1.11-3.13,4.23,4.23,0,0,0-1.62-3.3,11.36,11.36,0,0,0-4.75-2.13c-2.18-.52-4.5-1-6.93-1.46a54.52,54.52,0,0,1-6.86-1.74q-7.33-2.39-10.56-6.47a15.84,15.84,0,0,1-3.23-10.13q0-8.13,7.29-13.26T359.57,99a58.31,58.31,0,0,1,11.35,1.11,54,54,0,0,1,9.71,2.79v13.4H379a30.87,30.87,0,0,0-8.61-4.7,29.52,29.52,0,0,0-10.41-1.9,27.4,27.4,0,0,0-3.73.26,14.47,14.47,0,0,0-3.57,1,6.86,6.86,0,0,0-2.62,1.78,3.9,3.9,0,0,0-1.1,2.71,4.06,4.06,0,0,0,1.76,3.54c1.17.82,3.39,1.57,6.64,2.25l6.16,1.28c2,.42,4.08,1,6.34,1.72,4.46,1.46,7.74,3.45,9.87,6A14.67,14.67,0,0,1,382.93,140Z"/></svg>