<svg id="Слой_1" data-name="Слой 1" xmlns="http://www.w3.org/2000/svg" viewBox="0 0 600 600"><defs><style>.cls-1{fill:#e84c3d;}.cls-2{fill:#fff;}</style></defs><title>html</title><circle class="cls-1" cx="300" cy="300" r="300"/><polygon class="cls-2" points="194.71 149.13 211.48 149.13 211.48 167.5 229.83 167.5 229.83 112.64 211.48 112.64 211.48 130.77 194.71 130.77 194.71 112.64 176.37 112.64 176.37 167.5 194.71 167.5 194.71 149.13"/><polygon class="cls-2" points="253.94 167.5 272.27 167.5 272.27 130.85 288.41 130.85 288.41 112.64 237.8 112.64 237.8 130.85 253.94 130.85 253.94 167.5"/><polygon class="cls-2" points="314.38 140.32 327.02 159.82 327.32 159.82 339.93 140.32 339.93 167.5 358.2 167.5 358.2 112.64 339.08 112.64 327.32 131.95 315.57 112.64 296.45 112.64 296.45 167.5 314.38 167.5 314.38 140.32"/><polygon class="cls-2" points="411.45 149.38 385.66 149.38 385.66 112.64 367.33 112.64 367.33 167.5 411.45 167.5 411.45 149.38"/><path class="cls-2" d="M150,191.58l26.23,294.15L293.9,518.4l117.82-32.65L438,191.58ZM381.1,287.77H243l3.3,37H377.82l-9.89,110.79L294,456l-.05,0L220,435.51l-5.16-57.95h36.21l2.69,30.06,40.18,10.86H294l40.22-10.86,4.19-46.79h-125l-9.74-109.11H384.32Z"/></svg>