<svg id="Слой_1" data-name="Слой 1" xmlns="http://www.w3.org/2000/svg" viewBox="0 0 600 600"><defs><style>.cls-1{fill:#e84c3d;}.cls-2{fill:#fff;}</style></defs><title>html</title><circle class="cls-1" cx="300" cy="300" r="300"/><polygon class="cls-2" points="417.31 498.75 300 530.84 182.69 498.75 155.62 200.84 444.38 200.84 417.31 498.75"/><polygon class="cls-1" points="386.23 262.71 213.44 262.71 217.49 303.96 223.87 376.15 336.11 376.15 332.45 417.23 299.99 427.61 267.58 417.23 265.42 396.77 225.77 396.77 230.5 448.2 299.99 468.86 369.37 448.19 379.58 334.9 261.34 334.9 258.76 303.96 382.49 303.96 386.23 262.71"/><path class="cls-2" d="M235.41,158.25h-15V132.62H198.26v25.63h-15V100.08h15v21.29h22.15V100.08h15Z"/><path class="cls-2" d="M295.76,111.33H277.6v46.92h-15V111.33H244.43V100.08h51.33Z"/><path class="cls-2" d="M365.76,158.25H350.84V119.3l-10.78,25.28H329.71L318.93,119.3v39H304.79V100.08h17.42l13.08,29.18,13-29.18h17.42Z"/><path class="cls-2" d="M422.56,158.25H380.61V100.08h15V147h26.95Z"/></svg>