<svg id="Слой_1" data-name="Слой 1" xmlns="http://www.w3.org/2000/svg" viewBox="0 0 600 600"><defs><style>.cls-1{fill:#e84c3d;}.cls-2{fill:#fff;}</style></defs><title>instruments</title><circle class="cls-1" cx="300" cy="300" r="300"/><path class="cls-2" d="M406.11,195.79c-.3,2.44-1.22,5-.91,7.62,1.07,8.08,2.74,16.15,4,24.23,3.66,21.63,7.16,43.26,10.82,64.9,3.5,21.63,7.16,43.27,10.82,64.9,2.28,13.87,4.72,27.58,7,41.45.46,2.13,0,3.65-2.59,4-19,3-38.24,5.94-57.28,9-9,1.37-18.13,2.89-27.12,4.42-.76.15-1.53,1.37-2.14,2.13.16,0,.16.15.31.15h0c.91.46,1.83,1.52,2.74,1.37,2.74-.15,5.64-.76,8.38-1.06,21.18-3.36,42.2-6.71,63.38-10.21,6.4-1.07,12.65-2.14,19.5-3.2-11.73-70.24-23.31-139.87-35-209.5A7,7,0,0,1,406.11,195.79Z"/><path class="cls-2" d="M265.18,213.77c4.42-1.68,8.38-.46,12.19,4,17.06,20.42,34.28,41,51.35,61.4,4.11,4.88,8.22,9.75,12.49,14.78,2.28-2.28,1.83-4,.3-5.94-6.85-8.23-13.71-16.46-20.56-24.53-13.87-16.46-27.58-33.06-41.45-49.36-5.48-6.56-13.86-7-20.26-1.53a12.62,12.62,0,0,0-4.72,9.3c-.16,3.35,1.22,6.85,4.11,10.2l64.45,77.71c3.05,3.81,6.09,7.31,9.29,11.12,2.44-2.29,1.83-4,.31-5.94-6.25-7.47-12.34-14.93-18.59-22.4-17.37-21-34.89-42.05-52.26-63.23a15.36,15.36,0,0,1-3.05-6.09C258,219.41,260.92,215.45,265.18,213.77Z"/><path class="cls-2" d="M170.72,327.89c.61,4,1.22,7.92,1.68,11.88a19,19,0,0,1,.3,2.9c.46,3,1.68,3.5,4.42,3,8.23-1.22,16.45-2.43,24.68-3.35,2.44-.3,4.11-1.22,5-3.66,3-7.16,6.09-14.32,9.29-21.48a27.91,27.91,0,0,0,1.22-4.11c-16.3,2.74-31.84,5.18-47.84,7.62v.15h0C170,323.32,170.41,325.6,170.72,327.89Z"/><path class="cls-2" d="M267.47,250.34c-3.35-2.14-7.32-3.36-11-4.88-3.66.31-6.4,1.37-8.53,3.35h-.16l-.15.16a12.67,12.67,0,0,0-3,4.57c-.15.45-.45,1.06-.61,1.52-1.06,2.44-2,5-3,7.47a8.58,8.58,0,0,0-.76,1.82,4.42,4.42,0,0,0-.46,2.59c.15.77.91,1.22,2.13,1.68,6.7,2.44,13.26,4.72,20,7.31,2.44.92,3.5.16,4.27-2,1.52-3.81,3.2-7.62,4.72-11.27a14.06,14.06,0,0,0,1.07-4.57C272,255.06,270.51,252.32,267.47,250.34Z"/><path class="cls-2" d="M468.43,161.51c-1.22-1.22-3.51-2-7.47-3.35s-7.61-2-11.73-.15c-6.7,2.74-13,1.67-18.43-3.81a53.25,53.25,0,0,0-4.27-3.81l-.15-.15c-.46-.46-1.07-.76-1.53-1.22-.3-.31-.61-.46-.91-.76a3.66,3.66,0,0,1-.76-.61c-.61-.46-1.07-.77-1.68-1.22-.15,0-.15-.15-.3-.15l-2.29-1.38a46.45,46.45,0,0,0-8.38-3.8c-22.55-7.93-45.71-11.28-69.47-7.62-11.43,1.83-22.55,4.87-32.3,11.73-1.37,1.07-2.44,2.13-3.81,3.35h.15l-.15.15c13.25-1.06,25.75-1.22,38.39.46,7.47.91,14.17,3.2,19.66,8.68a17.09,17.09,0,0,1,2.13,2.44c5.94,7.62,7.31,16.76,8.23,25.9,1.06,12.8-1.22,25.14-4.88,37.33-3.81,12.95-7.31,26-11,39-.46,1.37-.76,2.59.46,3.35a7.49,7.49,0,0,0,1.06.45c3.05.92,6.1,1.68,9.15,2.59,3.35.92,6.7,2,10.2,2.9a19.08,19.08,0,0,0,.77-2.74c.3-1.07.76-2.14,1.06-3.2,5.94-21.49,12-43,20.27-63.69,3.65-9.29,9.9-14.63,19.65-15.69,6.25-.61,12.65-1.07,17.06,4.11.16.15.31.46.46.61s.31.46.46.61a14.86,14.86,0,0,0,10.51,6.4,29.71,29.71,0,0,1,6.4,1.68c2.9,1.06,4-.16,4.72-2.75,2.44-8.68,5-17.37,7.62-26C469.5,165.47,470.26,163.19,468.43,161.51Z"/><path class="cls-2" d="M376.25,281.27c.46-2,.31-3.2-.61-4.12a6.87,6.87,0,0,0-2.59-1.22c-4.11-1.06-8.38-2.13-12.49-3.5-7.62-2.29-6.1-2-8.38,4.42q-28.11,80.44-56.53,160.74a21.34,21.34,0,0,0-1.52,6.85,21.65,21.65,0,0,0,6.09,16.61c4.12,4.11,10.06,6.4,17.37,6.55h1.22c5.79,0,10.36-2.74,13.41-7.92A46,46,0,0,0,336.49,449c9.59-39.46,19-79.07,28.49-118.53C368.48,314,372.29,297.57,376.25,281.27Z"/><path class="cls-2" d="M295.81,428c-1.07-.61-2.44-1.68-3.36-1.53h-.15c-14.17,2-28.18,4.12-42.2,6.4-28.49,4.42-57.14,8.84-85.47,13.41a9,9,0,0,1-1.83.15c-1.53-.15-2.14-1.06-2.44-3.2-1.68-12.34-3.51-24.83-5.33-37-4.12-27.43-8.38-54.85-12.5-82.27-4.42-29.87-8.83-59.88-13.4-89.74-.46-3.36.61-4.73,3.8-5.18,5.79-.77,11.43-1.83,17.22-2.75l70.39-11.42c20.42-3.35,41.14-6.71,61.55-10.21,2.14-.31,4.12-.61,6.25-1.07L333,196.25c2.13-.31,4.12-.61,6.25-1.07,9-1.52,18-2.89,26.81-4.57,1.07-.15,1.83-1.83,2.75-2.74a34,34,0,0,0-3.66-1.37h-.31c-.3,0-.6.15-.91.15-11.12,1.83-22.24,3.81-33.37,5.64-23.46,3.81-46.92,7.62-70.39,11.58-21.94,3.65-43.72,7.31-65.66,10.81-22.55,3.66-45,7.47-67.5,11-2.43.46-3.81,1.07-2.89,3.2.15,1.38.3,2.59.46,3.81.3,1.68.45,3.35.76,4.88,2.89,19,5.94,38.24,8.68,57.29,2.9,19.19,5.64,38.54,8.38,57.74q4.35,29,8.69,58.05c1.82,12.19,3.65,24.53,5.48,36.87.31,2.28,1.07,3.5,3.35,3.35a2.65,2.65,0,0,0,1.07-.15c18.13-3.05,36.26-5.94,54.24-8.69,25.9-4,51.65-7.92,77.55-12C294.13,430,294.89,428.75,295.81,428Z"/><path class="cls-2" d="M226.48,374.05c11.89-30.47,24.08-60.94,36.11-91.41a26.94,26.94,0,0,0,1.22-3.36,13.58,13.58,0,0,0-2.44-1.52c-6.85-2.59-13.71-5-20.57-7.62-2.13-.76-3.19,0-4,1.83q-18.74,46.17-37.63,92.33a4.06,4.06,0,0,0-.46,1.68c-.15,1.37.61,2.13,2.29,2.74,6.4,2.59,13.1,5,19.35,7.92C223.74,378.47,225.11,377.56,226.48,374.05Z"/><path class="cls-2" d="M249.64,335.05c26.51-4.27,52.57-8.69,79.69-13.1-3.36-4.27-6.56-8.08-9.6-11.89a39.81,39.81,0,0,1-3.66-5.18,31.79,31.79,0,0,0-2.74-3.35c-2.75-2.9-6.1-3.81-10.82-2l-1.83.46c-.91.15-1.83.15-2.74.3h-.31c-13.25,2.29-26.51,4.57-39.91,6.86a.56.56,0,0,0-.46.15c-.61.15-1.22.3-1.68.46a4.22,4.22,0,0,0-2.59,2.74c-2.59,7.31-5.33,14.62-8.07,21.94a14,14,0,0,0-.46,3.2h.15A28.67,28.67,0,0,0,249.64,335.05Z"/><path class="cls-2" d="M363.61,362.32a22.49,22.49,0,0,0,6.7,5.18c3.35,1.83,7,3.2,10.51,4.88,5,2.43,8.69,6.09,8.69,12.18a11.68,11.68,0,0,0,.91,3.05c.61-.3.76-.3,1.07-.46s.45-.6.76-.91a30.29,30.29,0,0,0,5.33-17.52,46.67,46.67,0,0,0-1.52-11.12c-2.9-11.13-8.08-20.72-18.89-26.36-3.05-1.52-4.88-.15-7,1.22s-3.2,3.05-3.05,5.64a4.3,4.3,0,0,0,.15,1.37c1.53-1.07,3.05-1.68,4-2.75,2.59-2.59,4.88-2.13,7.62-.15,8.84,6.1,15.09,20,15.09,31.24a25.5,25.5,0,0,1-.77,6.09,10.08,10.08,0,0,1-.3,1.07c-9.75-6-19.35-11.89-29.86-18.13V357h0C362.84,359.12,362.54,361.25,363.61,362.32Z"/><path class="cls-2" d="M193.42,417.32h0c9.9-12.34,19.81-24.68,29.86-37.33-1.52-.76-2.43-1.37-3.35-1.82-6.4-2.59-12.8-5-19-7.62a13.47,13.47,0,0,0-2-.61c-1.53-.15-2,.91-2.29,3.2-.76,8.38-1.83,16.76-2.74,25.14-.76,6.09-1.22,12.19-1.83,18.43a4.6,4.6,0,0,0,1.37.61Z"/><path class="cls-2" d="M373.2,314c8.38-1.06,16.61-2.13,24.84-3.5.76-.15,1.52-1.83,1.52-2.74-1.06-6.56-2.13-13.26-3.65-19.66a3.67,3.67,0,0,0-2.9-2.44h0c-4.11.31-8.38.92-12.49,1.53-2.14.3-3.66,1.22-2.44,4.26.91-.15,1.83-.3,2.89-.45,2.9-.46,5.79-.77,8.69-1.07a3.36,3.36,0,0,1,2.59,1.07c0,.15.15.15.15.3,1.07,5,1.83,10.21,2.9,15.39-6.56.91-12.5,1.68-18.44,2.44C374.42,309.76,372.29,310.21,373.2,314Z"/></svg>