<svg id="Слой_1" data-name="Слой 1" xmlns="http://www.w3.org/2000/svg" viewBox="0 0 600 600"><defs><style>.cls-1{fill:#e84c3d;}.cls-2{fill:#fff;}</style></defs><title>JavaScript</title><circle class="cls-1" cx="300" cy="300" r="300"/><path class="cls-2" d="M310.21,483.5a27.57,27.57,0,0,1-14-3.77l-44.34-26.26c-6.6-3.78-3.46-5-1.25-5.82,8.8-3.14,10.69-3.77,20.12-9.12a3.15,3.15,0,0,1,3.3.32l34.12,20.28a4.66,4.66,0,0,0,4.09,0L445.11,382.4a4.16,4.16,0,0,0,2.05-3.62V225.48a4.17,4.17,0,0,0-2.05-3.62L312.25,145.29a3.87,3.87,0,0,0-4.09,0l-132.7,76.57a4.38,4.38,0,0,0-2.05,3.62v153.3a4.36,4.36,0,0,0,2.05,3.62l36.32,21.07c19.81,9.9,31.76-1.73,31.76-13.37V238.69a3.76,3.76,0,0,1,3.93-3.77h16.82a3.82,3.82,0,0,1,3.78,3.77V390c0,26.41-14.31,41.51-39.31,41.51-7.7,0-13.68,0-30.66-8.34L163.19,403a28.14,28.14,0,0,1-14-24.22V225.48a28.14,28.14,0,0,1,14-24.21l132.87-76.73a29.41,29.41,0,0,1,28,0L456.9,201.27a28.13,28.13,0,0,1,14,24.21v153.3a28.13,28.13,0,0,1-14,24.22L324,479.73A28.17,28.17,0,0,1,310.21,483.5Z"/><path class="cls-2" d="M351.24,377.84c-58.17,0-70.28-26.73-70.28-49.06a3.72,3.72,0,0,1,3.77-3.77h17.14a3.88,3.88,0,0,1,3.78,3.3c2.51,17.45,10.37,26.26,45.44,26.26,28,0,39.93-6.29,39.93-21.23,0-8.49-3.3-14.93-46.85-19.18-36.32-3.62-58.81-11.63-58.81-40.72,0-26.73,22.65-42.77,60.54-42.77,42.61,0,63.68,14.78,66.35,46.38a4,4,0,0,1-.94,3,3.93,3.93,0,0,1-2.83,1.26h-17.3a4,4,0,0,1-3.77-3c-4.09-18.39-14.15-24.21-41.51-24.21-30.5,0-34.12,10.69-34.12,18.55,0,9.59,4.24,12.42,45.44,17.93,40.88,5.34,60.22,13.05,60.22,41.66C417.44,361.17,393.23,377.84,351.24,377.84Z"/></svg>