<svg id="Слой_1" data-name="Слой 1" xmlns="http://www.w3.org/2000/svg" viewBox="0 0 600 600"><defs><style>.cls-1{fill:#e84c3d;}.cls-2{fill:#fff;}</style></defs><title>JavaScript</title><circle class="cls-1" cx="300" cy="300" r="300"/><path class="cls-2" d="M259.72,331.69a58.48,58.48,0,0,1-4.28,22.4,45.6,45.6,0,0,1-12.69,17.64,62.91,62.91,0,0,1-21.49,11.9q-12.57,4.22-31.12,4.22-12.58,0-23.68-.92a171.59,171.59,0,0,1-19.54-2.61V347.56h4.4q5.85,2.2,12.21,4.09a58.07,58.07,0,0,0,16.23,1.89q12.83,0,19.71-3.42a20.48,20.48,0,0,0,9.83-9.53,35,35,0,0,0,3.18-13.13q.36-7.15.36-18.27V236.72H171.22V203.28h88.5Z"/><path class="cls-2" d="M449.29,327.91q0,26.85-22.76,43.64T364.7,388.33q-22.59,0-39.37-4A203.24,203.24,0,0,1,293.9,374.3V330.72H299a108.64,108.64,0,0,0,32.54,17.82,105.7,105.7,0,0,0,34.6,6.22,111.63,111.63,0,0,0,11.23-.73,45,45,0,0,0,11.36-2.44,28.15,28.15,0,0,0,8.84-5.49c2.33-2.2,3.48-5.45,3.48-9.77A13.19,13.19,0,0,0,396,326q-5.07-4.33-14.83-6.66-10.26-2.43-21.67-4.57a166.6,166.6,0,0,1-21.42-5.44q-22.95-7.44-33-20.2T295,257.47q0-25.38,22.76-41.44T376.29,200a181.42,181.42,0,0,1,35.46,3.48,165.87,165.87,0,0,1,30.34,8.73v41.87h-5a96.34,96.34,0,0,0-26.91-14.71,92.65,92.65,0,0,0-32.53-5.92,85.65,85.65,0,0,0-11.66.79,46,46,0,0,0-11.17,3,21.32,21.32,0,0,0-8.18,5.56,12.19,12.19,0,0,0-3.42,8.48,12.67,12.67,0,0,0,5.5,11.05q5.49,3.84,20.75,7,10,2.07,19.22,4t19.84,5.37q20.88,6.84,30.82,18.62T449.29,327.91Z"/></svg>