<svg id="Слой_1" data-name="Слой 1" xmlns="http://www.w3.org/2000/svg" viewBox="0 0 600 600"><defs><style>.cls-1{fill:#e84c3d;}.cls-2{fill:#fff;}</style></defs><title>jQuery</title><circle class="cls-1" cx="300" cy="300" r="300"/><g id="Layer_5" data-name="Layer 5"><path class="cls-2" d="M259.09,292.77h0l-3.25,11.52,3.25-11.51Z"/><path class="cls-2" d="M275.81,317.77l-3.58,0Z"/><path class="cls-2" d="M274.89,335h0l-21.46.07,21.46-.07Z"/><path class="cls-2" d="M279.39,317.8l-3.59,0Z"/><path class="cls-2" d="M276.77,333.51l3.74-14.25-3.74,14.26Z"/><path class="cls-2" d="M355.77,267.87l-7,32.73Z"/><path class="cls-2" d="M337.87,267.87l-5.28,24.45,5.28-24.45Z"/><path class="cls-2" d="M354.58,266.39H339.69a2,2,0,0,0-1.82,1.47l-5.29,24.46-5.29,24.46a1.94,1.94,0,0,1-1.82,1.46H314.94c-10.43,0-9.23-7.21-7.09-17.09l.06-.3.24-1.24c0-.08,0-.16,0-.24l.48-2.53.51-2.72c.15-.82.39-2,.54-2.77l2.4-11.74,2.41-11.74a1.19,1.19,0,0,0-1.2-1.48H298a2,2,0,0,0-1.81,1.48L293,283.46,289.66,299v0l-.3,1.45c-3.79,17.28-2.78,33.75,17.79,34.27H340a1.94,1.94,0,0,0,1.82-1.47l7-32.73,7-32.73a1.18,1.18,0,0,0-1.19-1.48Z"/><path class="cls-2" d="M414,318.41a1.19,1.19,0,0,1,1.2,1.48L413.73,327"/><path class="cls-2" d="M412.29,334l1.44-7.07L412.29,334Z"/><path class="cls-2" d="M410.48,335.51h0c-4.38,0-17.55.13-27.44.13,12,0,27.44-.13,27.44-.13Z"/><path class="cls-2" d="M374.15,309.31c0-.77.87-2.11,1.7-2.11l-1.86,0c-.84,8.43.16,2.14.16,2.14Z"/><path class="cls-2" d="M384.39,335.64h0Z"/><path class="cls-2" d="M414,318.41a1.19,1.19,0,0,1,1.2,1.48L413.73,327l-.23,1.15"/><path class="cls-2" d="M386.67,335.64h0Z"/><path class="cls-2" d="M387.57,335.63h0Z"/><path class="cls-2" d="M391.38,335.62h0Z"/><path class="cls-2" d="M410.49,335.51h0c-3.22,0-11.15.08-19.05.11C399.34,335.59,407.27,335.53,410.49,335.51Z"/><path class="cls-2" d="M412.29,334l1.21-5.93L412.29,334h0Z"/><path class="cls-2" d="M167.43,309.49l2.31-10.25L167.09,311l-2.53,11.93,2.22-10.46c.17-.81.46-2.13.65-2.94Z"/><path class="cls-2" d="M195.11,266.22H178.76a2,2,0,0,0-1.84,1.47l-1.55,6.84-1.55,6.85a1.15,1.15,0,0,0,1.17,1.46h16.48a2,2,0,0,0,1.82-1.47l1.5-6.84,1.5-6.84h0a1.16,1.16,0,0,0-1.18-1.47Z"/><path class="cls-2" d="M191.55,289h0l-4.79,22.18Z"/><path class="cls-2" d="M144.05,362.5s8.24.1,13.48.1c-4,0-10.55-.07-13.49-.1Z"/><path class="cls-2" d="M172.05,289l-2.31,10.26Z"/><path class="cls-2" d="M190.37,287.52H173.89a2,2,0,0,0-1.84,1.46l-2.31,10.26-2.31,10.25c-.19.81-.48,2.13-.65,2.94l-2.22,10.46-2.23,10.47a28.69,28.69,0,0,1-.79,2.89s-3.08,9.17-8.25,9.06h-.65l-4.48-.09h0a2,2,0,0,0-1.85,1.44l-1.71,7.19L142.89,361A1.16,1.16,0,0,0,144,362.5c2.94,0,9.51.11,13.49.11,12.93,0,19.74-7.17,24.11-27.78l5.12-23.66L191.55,289a1.16,1.16,0,0,0-1.18-1.47Z"/><path class="cls-2" d="M424.48,334.8a1.16,1.16,0,0,1-1.19-1.47l12.4-58.07"/><path class="cls-2" d="M441.71,333.33l5-24.79Z"/><path class="cls-2" d="M423.47,334.07a6.56,6.56,0,0,1,.13-2.21l5.89-27.56-6.2,29a1.16,1.16,0,0,0,1.19,1.47H426c-.83,0-2.41-.33-2.51-.73Z"/><path class="cls-2" d="M440.73,334.47a7.92,7.92,0,0,1-2.33.33h1.51a1.91,1.91,0,0,0,1.8-1.47l.3-1.47c-.17.81-.83,2.43-1.28,2.61Z"/><path class="cls-2" d="M444.22,320.94,446.43,310v0l-2.21,10.92Z"/><path class="cls-2" d="M493.13,279.15l.69,2.82a1.15,1.15,0,0,1-1.16,1.47"/><path class="cls-2" d="M442,331.86l2.2-10.92Z"/><path class="cls-2" d="M492.45,276.26l.68,2.89Z"/><path class="cls-2" d="M446.43,310c.16-.81.44-2.12.61-2.92L449.4,296l-2.68,12.54-.29,1.46Z"/><path class="cls-2" d="M435.89,274.31c-.17.78-.38,1.77-.52,2.42l-5.88,27.57,6.2-29,.2-.95Z"/><path class="cls-2" d="M493.81,282l-.68-2.82-.68-2.89-.34-1.46c-1.34-5.2-5.27-8.2-13.8-8.2l-13.28,0H439a1.92,1.92,0,0,0-1.81,1.47h0l-.61,2.87-.72,3.4-.2.95-6.2,29-5.89,27.56a6.56,6.56,0,0,0-.13,2.21c.1.4,1.69.73,2.52.73H438.4a7.92,7.92,0,0,0,2.33-.33c.45-.18,1.11-1.8,1.28-2.61l2.21-10.92,2.2-10.92v0l.29-1.45L449.4,296l2.37-11.08a1.93,1.93,0,0,1,1.81-1.46l39.07,0a1.14,1.14,0,0,0,1.16-1.47Z"/><path class="cls-2" d="M544.12,256.46H528.6a3.19,3.19,0,0,0-2.35,1.24l-27.66,40.52c-.47.68-1,.58-1.18-.22l-2-8.93a2,2,0,0,0-1.84-1.47H475.75a1.08,1.08,0,0,0-1.09,1.45l8,27.91a6.6,6.6,0,0,1,0,2.9l-3.47,13.51a1.11,1.11,0,0,0,1.13,1.46H497.9a2,2,0,0,0,1.87-1.46l3.48-13.51a8.84,8.84,0,0,1,1.28-2.66l44.89-59.59c.5-.66.23-1.2-.59-1.19l-4.71,0Z"/><path class="cls-2" d="M402.86,291.41h0a1.81,1.81,0,0,1-1.75,1.55H378.56a1,1,0,0,1-1.06-1.18l0-.06h0a.15.15,0,0,1,0-.07s0-.16.11-.39c2.15-5.72,6.53-9.48,14.78-9.48,9.27,0,11.08,4.54,10.45,9.63Zm-6.61-26c-28.93,0-35.79,17.56-39.64,35.28-3.84,18.07-3.51,35,26.43,35h8.4c7.9,0,15.83-.09,19.05-.11a2,2,0,0,0,1.79-1.48l1.21-5.93.24-1.15,1.44-7.06a1.18,1.18,0,0,0-1.2-1.48H387.06c-10.71,0-13.89-2.84-12.72-11.21H417.4a1.76,1.76,0,0,0,1.56-1.11,1.58,1.58,0,0,0,.11-.37h0c6.39-24.09,4.56-40.32-22.81-40.32Z"/><path class="cls-2" d="M259.5,291.32l-.41,1.44h0l-3.25,11.51-3.25,11.51a2.09,2.09,0,0,1-1.91,1.45h-17.2c-13,0-16.22-10.2-13-25.25,3.18-15.39,9.4-25,22.24-25.93,17.55-1.32,21.06,11,16.82,25.26Zm11.79,25s8.11-19.68,9.95-31.05c2.51-15.23-5.11-37.3-34.54-37.3-29.27,0-42,21.08-46.83,44-4.85,23.08,1.5,43.31,30.6,43.15l23-.09,21.46-.07a2.08,2.08,0,0,0,1.88-1.46l3.74-14.26a1.12,1.12,0,0,0-1.12-1.47l-3.59,0-3.58,0a.92.92,0,0,1-1-1.06,1.56,1.56,0,0,1,.09-.34Z"/><path class="cls-2" d="M416.19,303.18a1,1,0,1,1-1-1A1,1,0,0,1,416.19,303.18Z"/><path class="cls-2" d="M47.8,277.58c-8.09,11.62-7.08,26.73-.91,39.07.15.3.31.59.46.88l.29.56c0,.11.12.21.18.32s.21.38.32.57.39.68.59,1l.33.56c.23.35.45.71.69,1.07.09.15.19.3.29.45.32.48.65.95,1,1.43l0,0,.16.23.91,1.2c.11.14.22.29.34.43.27.35.55.69.83,1,.11.12.21.25.32.38l1.16,1.33,0,0,0,.05c.39.42.78.83,1.18,1.24l.38.39.94.92.39.37q.63.6,1.29,1.17l0,0,.23.19c.38.34.78.67,1.17,1l.49.39,1,.77.52.4c.36.26.73.53,1.1.78l.4.29.11.08,1.06.7.46.31c.55.35,1.11.69,1.67,1l.46.26c.42.24.84.48,1.26.7l.69.36.9.47.21.1.36.18,1.42.65.3.14c.55.24,1.1.47,1.66.69l.41.16,1.56.58.2.06c.57.2,1.16.39,1.74.57l.42.13a18.67,18.67,0,0,0,1.81.51c39.08,7.13,50.43-23.49,50.43-23.49-9.53,12.42-26.46,15.7-42.49,12.05-.61-.13-1.2-.32-1.79-.5l-.45-.14c-.58-.17-1.15-.36-1.72-.56l-.24-.08-1.52-.56-.43-.17-1.64-.68-.33-.15-1.38-.64-.4-.2c-.36-.17-.72-.36-1.07-.54s-.48-.24-.71-.37L75.61,327l-.43-.24c-.56-.34-1.12-.68-1.67-1l-.45-.3c-.4-.26-.8-.52-1.19-.79l-.38-.27-1.13-.81-.5-.38-1-.79-.45-.36c-.43-.35-.85-.7-1.26-1.07l-.14-.11-1.33-1.21-.37-.36-1-.93L64,318c-.4-.41-.79-.82-1.17-1.24l-.06-.06c-.41-.44-.8-.89-1.19-1.35-.1-.13-.21-.25-.31-.37-.29-.35-.58-.7-.85-1.06-.11-.12-.21-.26-.32-.39l-1-1.31c-8.9-12.14-12.1-28.89-5-42.65"/><path class="cls-2" d="M72.88,267.8c-5.84,8.41-5.52,19.66-1,28.56a36.1,36.1,0,0,0,2.58,4.31,20.7,20.7,0,0,0,3,3.76c.42.46.86.92,1.31,1.36.11.12.23.23.35.34.43.43.88.84,1.34,1.25l0,0v0c.51.44,1,.87,1.57,1.29l.35.28c.54.41,1.08.81,1.64,1.19l.05,0c.24.17.5.33.74.49l.36.24c.4.25.8.5,1.21.74.06,0,.12.06.17.1l1.08.6.38.2.75.39.11.05c.51.25,1,.5,1.56.73l.35.14,1.28.52.55.2c.39.15.79.28,1.18.41l.53.17a11.48,11.48,0,0,0,1.71.49c30.17,5,37.14-18.23,37.14-18.23-6.28,9-18.44,13.36-31.42,10-.58-.15-1.14-.31-1.71-.49l-.51-.17-1.2-.41-.54-.2-1.28-.52a3.68,3.68,0,0,1-.35-.15c-.53-.23-1.06-.47-1.58-.73l-.79-.4-.45-.23c-.34-.19-.67-.37-1-.57l-.24-.13c-.41-.24-.81-.49-1.21-.74l-.36-.24-.79-.52c-.55-.39-1.1-.79-1.63-1.2l-.37-.28a36.42,36.42,0,0,1-12.32-17.57c-2.24-7.21-1.76-15.3,2.13-21.86"/><path class="cls-2" d="M94,260.48a17.61,17.61,0,0,0-1.39,17,23.88,23.88,0,0,0,13.72,12.82l.75.26.33.1a6.56,6.56,0,0,0,1.07.31c16.66,3.22,21.18-8.55,22.39-10.28-4,5.7-10.62,7.07-18.78,5.09-.64-.16-1.35-.39-2-.61a24.33,24.33,0,0,1-6.46-3.48c-7.31-5.55-11.85-16.12-7.08-24.73"/></g></svg>