<svg id="Слой_1" data-name="Слой 1" xmlns="http://www.w3.org/2000/svg" viewBox="0 0 600 600"><defs><style>.cls-1{fill:#e84c3d;}.cls-2{fill:#fff;}</style></defs><title>others</title><circle class="cls-1" cx="300" cy="300" r="300"/><circle class="cls-2" cx="299.4" cy="299.28" r="78.09"/><path class="cls-2" d="M452,184.3a26.31,26.31,0,0,0,6.63-17.56,26.83,26.83,0,0,0-26.86-26.86,26.31,26.31,0,0,0-17.56,6.63A190,190,0,0,0,299.4,108c-105.31,0-191.1,85.79-191.1,191.1s85.79,191.1,191.1,191.1,191.1-85.79,191.1-191.1A190,190,0,0,0,452,184.3ZM299.4,483.93c-101.91,0-184.65-82.92-184.65-184.65,0-101.91,82.92-184.65,184.65-184.65a183.63,183.63,0,0,1,110.5,36.71,26.7,26.7,0,0,0,21.86,42.27,25.6,25.6,0,0,0,15.4-5,183.63,183.63,0,0,1,36.71,110.5C484.05,401,401.31,483.93,299.4,483.93Z"/></svg>